<?xml version="1.0" encoding="UTF-8" standalone="no"?>
<svg
   xmlns:dc="http://purl.org/dc/elements/1.1/"
   xmlns:cc="http://creativecommons.org/ns#"
   xmlns:rdf="http://www.w3.org/1999/02/22-rdf-syntax-ns#"
   xmlns:svg="http://www.w3.org/2000/svg"
   xmlns="http://www.w3.org/2000/svg"
   xmlns:sodipodi="http://sodipodi.sourceforge.net/DTD/sodipodi-0.dtd"
   xmlns:inkscape="http://www.inkscape.org/namespaces/inkscape"
   width="170mm"
   height="60mm"
   viewBox="0 0 170 60"
   version="1.1"
   id="svg935"
   inkscape:version="1.0.2 (e86c8708, 2021-01-15)"
   sodipodi:docname="marca-julana-horizontal.svg">
  <defs
     id="defs929" />
  <sodipodi:namedview
     id="base"
     pagecolor="#ffffff"
     bordercolor="#666666"
     borderopacity="1.0"
     inkscape:pageopacity="0.0"
     inkscape:pageshadow="2"
     inkscape:zoom="4.561299"
     inkscape:cx="400.58786"
     inkscape:cy="14.680081"
     inkscape:document-units="mm"
     inkscape:current-layer="g1608"
     inkscape:document-rotation="0"
     showgrid="false"
     width="200mm"
     inkscape:window-width="1440"
     inkscape:window-height="847"
     inkscape:window-x="0"
     inkscape:window-y="25"
     inkscape:window-maximized="1" />
  <metadata
     id="metadata932">
    <rdf:RDF>
      <cc:Work
         rdf:about="">
        <dc:format>image/svg+xml</dc:format>
        <dc:type
           rdf:resource="http://purl.org/dc/dcmitype/StillImage" />
        <dc:title />
      </cc:Work>
    </rdf:RDF>
  </metadata>
  <g
     inkscape:label="Layer 1"
     inkscape:groupmode="layer"
     id="layer1">
    <rect
       style="fill:#ffffff;fill-rule:evenodd;stroke-width:0.21269;stop-color:#000000"
       id="rect2103"
       width="170"
       height="60"
       x="0"
       y="0" />
    <g
       id="g1654"
       transform="matrix(0.96164873,0,0,0.96164873,-16.588739,-16.63087)">
      <g
         id="g1624"
         transform="matrix(0.38274292,0,0,0.38274292,12.213798,30.228783)">
        <path
           d="m 77.326972,62.88776 v 1.295982 c 0,1.27971 0.531548,1.880526 0.940779,2.606489 l 0.498872,2.289361 c 2.750185,-0.640848 5.90251,-3.555921 5.90251,-6.911737 -0.82169,-0.191453 -1.579483,-0.542132 -2.187681,-0.691727 -0.70702,-0.173805 -1.962838,-0.892281 -1.987285,-0.892281 h -1.007666 c -0.604785,0 -2.159529,1.391153 -2.159529,2.303913 z"
           style="fill:#33695e;fill-rule:evenodd;stroke-width:0.264583"
           id="path833" />
        <path
           d="m 94.890701,79.303144 v -0.287893 l -0.431985,-0.863997 -0.0072,0.435663 z"
           style="fill:#33695e;fill-rule:evenodd;stroke-width:0.264583"
           id="path835" />
        <path
           d="m 95.610447,81.175045 v -0.287893 l -0.287893,-0.144092 0.0076,0.275748 z"
           style="fill:#33695e;fill-rule:evenodd;stroke-width:0.264583"
           id="path837" />
        <path
           d="m 103.24066,86.070895 0.29398,0.0109 0.42577,-0.298927 h -0.2879 z"
           style="fill:#33695e;fill-rule:evenodd;stroke-width:0.264583"
           id="path839" />
        <path
           d="m 77.183039,90.822679 -0.28792,-1.15189 z"
           style="fill:#33695e;fill-rule:evenodd;stroke-width:0.264583"
           id="path841" />
        <path
           d="M 77.758825,92.838672 V 92.55062 l -0.287893,-0.431985 -0.0109,0.294137 z"
           style="fill:#33695e;fill-rule:evenodd;stroke-width:0.264583"
           id="path843" />
        <path
           d="m 95.898367,98.742452 -0.863706,-0.431985 h -0.287893 l 0.71591,0.439208 z"
           style="fill:#33695e;fill-rule:evenodd;stroke-width:0.264583"
           id="path845" />
        <path
           d="m 101.94497,98.742452 h 0.43185 l 0.43183,-0.288025 z"
           style="fill:#33695e;fill-rule:evenodd;stroke-width:0.264583"
           id="path847" />
        <path
           d="m 138.07996,100.03843 v 1.29585 c 0.2105,0.31465 1.16205,1.44003 1.58353,1.44003 h 1.87164 c 0.32271,0 0.31604,-0.11393 0.57584,-0.288 l 0.71985,-0.72009 v -1.72779 l -0.86384,-1.008058 c -0.28419,-0.424366 -0.59259,-0.575919 -1.29572,-0.575919 h -0.71982 c -1.36914,0 -1.44812,0.97454 -1.87148,1.583977 z m -1.76183,2.98958 1.98652,-0.43754 -0.54682,-1.00237 z m 1.61782,-3.421561 -0.0163,-0.539777 -1.13536,-0.468153 c 0.27009,0.403278 0.6208,0.866113 1.15171,1.00793 z m -1.72755,1.007931 v -0.28808 l -0.47069,0.0616 z m 0,-0.28808 v 0.28808 l 1.00786,0.28808 h 0.28784 v -0.72009 h -0.28784 z m 1.00786,0.57616 0.43185,0.1439 -0.14401,-0.86399 v 0.72009 z m 7.05418,0.71982 0.28792,-0.288 -1.29569,-0.43182 v 0.71982 z m 0,0 h 0.57587 v -0.288 h -0.28795 z m -2.01554,1.00793 0.0376,0.23064 0.9702,0.63336 0.14394,-0.14391 -0.43186,-1.15207 h -0.288 z m 1.00777,0.864 0.30954,0.1369 -0.1656,-0.28081 z m -2.30346,0.864 v 0.28802 h 0.28792 v -0.43201 z m 0,0 0.28792,-0.14399 c 0.0752,-0.32295 0.14407,-0.33097 0.14407,-0.72001 v -0.43199 l -0.94163,0.0303 z m -2.73534,-0.28806 1.15178,-0.71985 c -0.0656,-0.24564 -0.16732,-0.57599 -0.43185,-0.57599 -0.27141,0 -0.65159,1.00258 -0.71993,1.29584 z m 4.31895,-5.183791 v 0.288078 l 0.30877,0.414602 0.26715,0.01741 0.8637,-0.863997 h -0.71977 c -0.38886,0 -0.3969,0.06869 -0.71985,0.143907 z m -2.02351,-0.869474 1.1598,0.293555 -0.0581,-1.911455 z m -1.43158,0.149622 0.52147,-0.196559 -0.6654,-1.099423 -0.14399,1.295982 z"
           style="fill:#33695e;fill-rule:evenodd;stroke-width:0.264583"
           id="path849" />
        <path
           d="m 80.926152,104.35821 -0.719878,0.43198 2.64e-4,0.28776 1.007507,1.44021 0.28792,-1.00793 0.143933,-1.44008 z"
           style="fill:#33695e;fill-rule:evenodd;stroke-width:0.264583"
           id="path851" />
        <path
           d="m 93.88293,108.67811 -0.156263,-0.2804 -0.27559,-0.008 0.143933,0.28805 z"
           style="fill:#33695e;fill-rule:evenodd;stroke-width:0.264583"
           id="path853" />
        <path
           d="m 137.79202,59.575944 c -0.37672,0.239103 -1.11366,0.143933 -1.74493,0.142954 l 0.16131,-1.006951 0.71978,-5.18377 c 0.26588,0.177906 3.59918,4.791895 3.59918,4.89585 0,0.502867 -2.00708,1.151917 -2.73534,1.151917 z m -1.72755,-3.167936 -0.28792,1.296008 c 0,0.407935 -0.0964,1.871928 -0.43193,1.871928 -1.1139,0 -2.15903,-1.103551 -2.87933,-1.296009 0.0539,-0.64807 3.28951,-4.063577 3.9411,-4.456192 z m 1.87148,-2.879831 4.7508,1.871927 0.3084,0.004 -0.16433,0.428016 c -0.20542,0.769356 -1.22243,2.119048 -1.95577,2.261182 l -3.08303,-4.421108 -0.28409,-0.308477 z m -2.1594,0 -3.88702,4.175839 c -0.45982,-0.686858 -1.56067,-1.996201 -1.57522,-2.991008 l 5.31818,-1.328923 0.46071,-0.11512 z m 2.30341,-0.863997 c 1.23666,-0.288157 2.11725,-0.603461 3.36854,-0.950648 1.58692,-0.44016 2.10209,-1.150699 2.10209,1.2387 v 0.431853 c 0,0.782717 -0.26993,0.774912 -0.28792,1.584008 l -5.18271,-1.871928 -0.47077,-0.226483 z m -8.06206,0 c 0,-0.929111 0.35859,-1.566307 0.43201,-2.447872 l 5.51151,2.506742 c -1.36356,0.11467 -4.30694,1.381046 -5.36761,1.381046 h -0.43182 c -0.0375,-0.450453 -0.14409,-0.511413 -0.14409,-1.007931 z m 11.94908,-1.584007 -4.03103,1.152075 -0.57322,0.163724 0.14137,-0.451802 1.87155,-4.607772 c 0.0556,-0.668787 -0.15444,-0.251857 0.28784,-0.575998 l 0.14402,0.143986 c 1.25153,0.662332 2.81715,1.952943 3.16724,3.455935 l 0.16434,0.428016 -0.30827,0.004 h -0.14407 z m -11.08522,-1.583849 c 0,-0.622353 2.58442,-2.783417 3.74309,-2.879857 0.0233,1.04947 1.58355,4.412853 1.58355,5.039783 v 0.575998 c -0.69344,-0.161634 -2.0766,-1.022244 -2.7315,-1.299819 -0.51231,-0.217196 -2.59514,-0.898498 -2.59514,-1.436105 z m -8.06746,-1.872615 c 0.71384,0.189918 0.43005,1.144799 -0.17693,1.291299 z m 2.45279,-0.287311 0.42804,-0.164333 -0.14009,0.308399 c -0.0859,1.031769 -1.04357,1.583848 -2.1594,1.583848 0.28297,-1.214913 0.92437,-1.226687 1.87145,-1.727914 z m 11.08051,-1.183878 0.005,3.775789 h -0.28792 l -1.00523,-3.58267 z m -14.8236,0.319881 h 0.288 l -0.15668,1.005681 -0.13132,0.0024 z m 15.69226,-0.287919 1.87568,0.262863 -1.87568,4.488894 z m -23.17838,1.727835 c -0.44979,0.285591 -1.60604,0.144065 -2.30333,0.144065 l 0.14394,-1.007904 0.86367,-5.90378 v -0.432011 l 0.28795,0.143933 c 0.64971,0.970492 3.95864,5.177552 4.03101,6.047766 z m 10.50944,-1.29585 c 0.0627,-0.235056 0.34411,-0.863997 0.57586,-0.863997 0.12809,0 0.28784,0.159835 0.28784,0.28792 0,0.240082 -0.65407,0.465084 -0.8637,0.576077 z m -1.43963,-1.584008 h 0.57587 c 0.49628,0 0.5574,0.106442 1.00777,0.143934 -0.0364,0.435821 -0.75316,1.584007 -1.15178,1.584007 -0.17521,0 -0.43186,-0.297762 -0.43186,-0.575918 z m 6.62229,4.751864 -0.28792,0.575998 c -0.10134,0.21119 -0.47514,2.106374 -0.43186,2.447846 l 0.28792,2.159926 0.2571,1.038754 -0.40103,-0.462836 -2.15953,-1.583849 -0.31477,-0.01034 0.17084,-0.42164 c -0.47559,-0.899028 -1.09448,-3.209845 -2.01547,-3.455934 h -0.28794 l 0.28794,-0.28792 c 1.15258,-0.772054 1.87145,-1.208114 1.87145,-3.167856 1.08152,-0.5724 3.84046,-2.295155 5.03897,-2.015993 0.0231,-1.041294 1.45253,-1.207876 2.15939,-1.583769 0.47498,-0.252545 1.88027,-1.1049 2.44732,-1.152155 v 2.87999 c 0,0.477678 -1.51477,0.708766 -2.01546,0.719931 -0.94658,0.633889 -1.81012,0.731335 -2.77321,1.690052 -0.62108,0.618067 -1.61851,1.706166 -1.83374,2.6298 z m -0.28792,-6.335765 0.57028,0.161607 0.006,0.270378 -1.0077,0.432012 -2.59178,1.295161 -0.7425,-0.845317 c 0.23739,-0.26461 1.29091,-1.889919 1.46265,-1.889919 0.43132,0 1.57996,0.898499 1.87163,1.152076 h 0.28792 v -0.432012 l -1.48206,-0.944166 0.0781,-0.129381 z m -18.13952,4.175839 v 0.28792 l -0.71977,-0.143987 c -0.64095,-0.307498 -3.02316,-1.02571 -3.02316,-1.72794 0,-0.02535 4.4228,-4.964166 4.75073,-5.18377 z m 2.73534,-6.767777 6.0438,2.310977 c -0.14769,0.638466 -1.94024,3.160791 -2.44462,3.160791 -0.16502,0 -3.47416,-4.675504 -3.74311,-5.18369 l -0.4563,-0.559884 z m -2.59141,-0.287999 0.42802,-0.164333 -0.13994,0.308399 c -0.51885,0.596847 -4.30816,4.895717 -4.75094,4.895717 -0.38912,0 -1.8498,-2.485734 -1.87147,-3.455775 z m 2.73532,-0.575998 0.86386,-0.28784 0.57584,-0.288078 4.31888,-1.29593 0.71805,-0.162904 0.002,0.594837 0.17587,1.291193 -0.0319,0.292708 c 0,0.709586 -0.28334,1.666135 -0.43185,2.304018 v 0.28792 l -0.43201,-0.143933 -2.32423,-0.959697 -3.1464,-1.200309 c -0.56266,-0.04678 -0.43725,0.08715 -0.57579,-0.431985 z m -3.16717,-0.575918 h 0.28792 l 0.14393,0.288078 0.47078,0.226325 -7.08539,1.819063 -0.1837,-1.320747 0.0321,-1.300718 c 0,-0.346499 0.48501,-1.77038 0.57584,-2.159873 z m 4.46289,9.647607 c -0.77364,0 -0.9624,0.166873 -1.29572,-0.287999 l 1.15178,-0.143986 c 2.93979,-0.24466 6.3345,-4.615444 6.3345,-8.207719 v -0.863917 l -0.27742,-2.3055 1.56832,-0.444606 c 0.005,0.981075 -0.90231,4.052411 -1.13406,5.210942 -0.1929,0.964354 -1.3086,4.413806 -1.3086,4.882859 v 0.287999 c 0,0.925804 0.40717,1.147657 0.57584,1.871927 -3.87832,2.052532 -2.11005,0.81661 -5.61464,0 z m -1.58356,-10.079619 -0.28792,0.144013 -0.28064,0.165523 0.13671,-0.453469 0.14393,-0.144066 2.30333,-5.759688 v -0.288078 l 0.43198,0.143986 c 1.48958,0.997744 3.22742,2.100527 3.74304,4.031853 l -1.55588,0.509323 z m 9.78961,2.303939 c 0,-0.782929 -0.0499,-0.953797 0.28784,-1.439942 l 1.28085,-9.505791 0.30279,0.0021 4.75085,5.90378 0.16434,0.428017 -0.30824,0.004 -5.5962,2.772912 -0.0185,0.826956 c 0,0.496331 0.10652,0.557556 0.14401,1.00793 l 1.84348,1.053729 c -0.0161,0.485193 -0.97768,2.11418 -1.41163,2.11418 -0.0269,0 -0.9258,-0.431985 -1.72754,-0.431985 z m -11.51715,-2.159926 0.16433,0.428016 -0.30827,-0.140017 -5.61464,-2.591938 h -0.28792 l -0.14409,-0.28792 c -1.32959,-0.355203 2.58474,-3.9996 4.03103,-4.031853 z m 23.89806,-1.151943 h 0.28792 l -0.14399,1.296008 c 0,2.036763 -0.32459,1.516116 -1.92817,2.391146 -0.54174,0.295645 -2.46211,1.310693 -2.96662,1.352708 l -0.61785,-2.292455 -2.52167,-1.357207 2.41972,-1.102281 0.4258,-0.298794 0.294,0.01087 1.72763,-0.719984 0.14398,-0.287946 c -0.14046,-0.525595 -1.00785,-1.513258 -1.00785,-1.87206 0,-0.672756 0.87977,-4.234656 1.09493,-5.240549 0.19785,-0.924216 1.48124,-3.892497 1.92833,-4.407006 0,1.462511 0.25612,3.116554 0.46027,4.435422 0.0917,0.591609 0.29017,1.361864 0.57539,1.872457 0.17762,0.318293 0.19794,0.604361 0.37343,0.922416 0.0731,0.13261 0.46239,0.637726 0.46239,0.689478 0,0.07493 -1.0554,1.122151 -1.14879,1.874705 -0.0896,0.722022 -0.15045,2.273538 0.14115,2.733067 z m -23.17829,1.00793 -0.28073,0.165603 -0.15113,-0.597588 v -0.431933 l -0.30884,-0.414602 -0.26699,-1.169326 -0.29888,-0.425926 0.0109,-0.294084 -0.43201,-1.439916 -0.29864,-0.425926 0.0109,-0.294137 -0.35605,-1.42195 c 0.76613,-0.07604 0.9706,-0.305991 1.79568,-0.305991 h 0.43182 l 2.59141,0.432012 h 0.28792 l -0.14398,0.287999 z M 72.959098,22.315784 70.638676,19.015875 c 1.425231,-0.04644 1.547098,0.163274 2.081477,0.961495 z m 2.784316,0.541576 -0.29882,-0.425926 0.01087,-0.294058 -2.051473,-5.313601 6.370426,-0.01426 v 0.576078 l 0.512418,4.887065 -0.08057,2.888642 c 0,1.593215 -0.691039,3.86715 -2.015464,4.17576 z M 40.328168,0.6822078 v 2.7358445 c 0.121894,0.1920611 0.441616,1.8589361 0.658522,2.3651104 0.32385,0.7554119 0.704241,1.4103879 0.972582,2.0512617 0.441457,1.0545762 1.824011,3.1178236 1.824011,4.2233316 v 1.439916 c 0,1.199541 -0.863706,1.655551 -0.863706,2.591911 v 5.039863 c 0,4.843647 7.329963,3.599841 11.948927,3.599841 0.881248,1.665764 3.478424,5.327703 5.758577,5.327703 h 0.575918 c 1.064101,0 5.020575,-5.731563 5.90259,-5.18377 l 0.28784,-2.159926 c 0.03254,-1.458595 0.863838,-1.366943 0.863838,-2.303912 v -1.151863 c 1.721326,0.401029 3.353409,3.518561 4.315963,4.898628 0.860848,1.234202 1.063122,1.247933 1.646105,2.961454 0.44114,1.296591 1.64338,2.019671 1.811999,2.651469 -0.450295,0.03749 -0.51136,0.144013 -1.007719,0.144013 -0.679106,0 -5.532966,-3.885009 -6.622415,-4.175866 l -0.143933,0.143934 c 0.196744,0.293846 5.749819,5.498385 6.306238,5.931958 2.558335,1.993953 4.006718,3.853286 5.969688,6.412653 1.048358,1.366891 10.182542,14.065144 10.182542,14.582405 0,0.628279 -2.124445,1.533075 -2.735342,1.584007 l -0.431985,0.28792 h -0.287867 l -0.719772,1.008089 c 0.737711,0.494003 7.917974,5.31704 7.917974,5.471768 0,0.500168 -0.28792,0.219604 -0.28792,0.719852 v 14.831536 c 0,0.727816 0.231748,0.764857 0.28792,1.439942 l 0.431932,0.863997 v 0.28784 l 0.431853,1.439915 0.287919,0.144092 v 0.28792 c 0.328216,1.409091 2.646389,4.57065 4.336362,4.587002 l 0.414441,0.308848 h 2.87941 l 0.43185,-0.287999 h 0.28792 c 3.15458,-0.735066 11.89522,-8.007085 14.35844,-10.261653 2.2071,-2.019961 11.84071,-9.547648 14.57827,-10.185532 l 0.1441,-0.287999 h 0.43185 l 1.43968,-0.431985 0.71972,-0.143934 v -0.288078 l -3.1672,-4.463838 -0.4023,-0.624761 0.69025,0.480828 c 1.05457,0.558085 2.14603,1.151995 3.74308,1.151995 h 0.86387 c 0.7824,0 0.77459,-0.27006 1.58361,-0.288078 0.51324,-0.343879 1.02854,-0.389546 1.68143,-0.765969 0.59459,-0.3429 0.98827,-0.676725 1.44983,-1.141809 1.30596,-1.316249 1.13475,-1.6188 2.05132,-2.988072 0.0181,-0.809096 0.28808,-0.801291 0.28808,-1.583849 v -1.727914 c 0,-1.86309 -1.11488,-3.739727 -2.04857,-4.719002 -0.6885,-0.722022 -3.21794,-2.336853 -4.42994,-2.336853 h -0.57576 v -6.623685 h 0.57576 c 0.39465,0 1.90066,1.727993 3.16717,1.727993 h 0.43201 c 0.88762,0 2.67718,-0.816451 3.31118,-1.151995 l 0.15621,-0.280432 -0.0123,-0.295566 -0.14391,-0.431933 c -1.03344,0.08594 -1.91468,1.151996 -3.74319,1.151996 -0.4662,0 -1.72747,-0.808117 -1.72747,-1.008089 0,-0.0061 1.00777,-1.107731 1.00777,-2.591832 v -0.144092 c 0,-1.471109 -1.71622,-1.60266 -2.4462,-2.8811 -0.66998,-1.173401 -1.15298,-2.477797 -1.15298,-4.318503 v -5.183849 c 0,-0.308716 1.4722,-1.952413 1.72824,-2.303251 0.19259,-0.263551 1.71352,-2.3046 1.87094,-2.3046 0.38767,0 2.11839,1.005152 2.6841,1.203219 0.24127,0.08446 3.21143,0.236696 3.65027,0.236696 h 0.43198 l -0.14406,0.576078 -0.85569,3.917632 1.86346,-0.461777 0.42577,-0.298953 0.43807,0.01103 c 0.89963,-0.07493 1.93651,-0.989409 2.56606,-1.465289 1.22541,-0.926174 1.0482,-1.002215 1.80276,-2.372704 0.41304,-0.750226 2.69259,-5.172074 2.97331,-5.377788 V 14.07359 c -0.74679,-0.500089 -0.47212,-0.807958 -1.34789,-1.099714 -0.60421,-0.201295 -1.2268,-0.317103 -1.53136,-0.772213 l -0.3729,-4.1684307 c -1.96919,-1.094449 -1.82272,-0.27305 -3.31073,-2.3707989 -0.6363,-0.8969375 -0.99306,-0.4740011 -2.13704,-0.7422092 -0.66022,-0.1548871 -1.81298,-0.3500967 -2.52931,-0.3500967 -0.6435,-0.4310327 -1.45701,-2.7359239 -2.1594,-2.7359239 h -2.30346 c -0.63135,0 -2.45169,1.35636 -3.45525,1.4399154 -0.21167,0.9093729 -1.8846,2.8142141 -2.40332,3.9318671 -0.23722,0.5112014 -1.77165,4.1629539 -1.77165,4.4197589 v 2.01586 l 4.5438,-2.694305 0.0632,5.574295 -8.6409,0.680693 -1.14863,0.03924 c -1.54004,0 -5.03886,-2.618264 -5.03886,-4.319773 V 12.34581 c 0,-2.4515759 1.25481,-4.3802826 2.1105,-6.0968199 0.36044,-0.7230004 2.70944,-4.7477891 3.07229,-4.9908618 0.63338,0.3352536 3.02424,1.8719271 3.59902,1.8719271 h 0.43201 c 0.38886,0 0.3969,-0.068792 0.71969,-0.1440127 -0.0732,-0.8814594 -0.77062,-0.8308446 -1.43962,-1.1518371 l 3.43432,-1.63187059 -0.43995,-0.79732186 -1.12273,0.26926645 -0.15624,0.2803525 -0.27578,0.0074877 h -0.28784 l -0.55959,0.32482895 0.41558,-0.46876228 c 0.24323,-0.33202562 2.44748,-2.18286537 2.44748,-2.44784557 0,-0.223864 -0.77309,-0.5759186 -1.00777,-0.5759186 -0.14722,0 -1.11517,0.9948863 -1.2957,1.1518371 l -0.43185,0.4320117 -0.57592,0.4320116 v 0.28799899 h -0.28794 l 0.28794,-0.43201169 0.288,-0.4319323 0.43185,-0.5761302 0.86368,-1.4399418 v -0.2878402 l -0.1439,-0.2880783 -0.85892,-0.1658144 -1.73233,2.7578049 -0.25921,0.3167328 -0.0289,-2.0447265 h -0.86371 c -0.79364,3.40754226 -2.80598,4.6417441 -4.49183,7.1707639 -0.61484,0.9224169 -1.65044,2.6241639 -2.07412,3.6852754 -0.27292,0.6836833 -1.48431,3.7339327 -1.49609,4.2633637 l -0.30879,0.414602 -0.15952,1.452536 c -0.15444,1.443725 3.27877,3.239241 3.49155,4.036642 h -8.78176 c 0.28194,1.210574 8.02315,9.814348 9.35768,11.807534 l -0.57592,3.743854 v 0.288078 l -0.43185,-0.144065 c -1.01415,-0.536787 -4.71496,-3.147828 -5.61457,-3.167936 l -0.28284,0.722339 5.88812,3.612806 c -0.0132,0.991896 -0.0792,1.143847 -0.85111,1.428088 -0.49681,0.182854 -1.20481,0.528823 -1.73099,0.572559 -0.52456,-2.252028 -4.49265,-5.471795 -7.1982,-5.471795 h -2.15947 c -0.1546,0 -2.28698,0.643122 -2.44735,0.72001 l -0.15621,0.280432 -0.27577,0.0075 c -1.9095,0.51009 -4.89474,4.257966 -4.89474,6.767777 v 2.735845 c 0,1.243806 1.19234,3.314699 1.78215,4.121255 0.83207,1.137894 2.79377,2.21115 3.11259,2.646522 -1.53548,0 -3.07118,0 -4.60682,0 -2.25457,0 -2.33527,0.180895 -4.03101,0.575997 l -0.425791,0.298874 -0.293978,-0.01087 -1.295718,0.288079 -0.425688,0.298741 -0.438071,-0.01087 -2.002208,0.488977 -0.01328,0.231087 -1.440735,0.283051 C 93.348815,50.387017 86.246632,37.053446 85.453649,35.4642 c -0.596847,-1.196022 -1.554295,-2.756561 -1.85211,-4.051273 -0.328665,-1.429068 -0.414152,-3.819314 -0.783696,-4.976019 -0.200766,-0.628809 -0.238574,-1.84494 -0.397721,-2.62591 -0.177668,-0.871062 -0.268711,-1.61806 -0.434552,-2.445306 -0.290909,-1.45079 -0.627592,-3.609075 -0.627592,-5.132096 0,-1.836288 11.805073,-6.7125058 11.805073,-10.3676981 V 5.5780577 c 0,-1.8361554 -6.894591,-7.3486697 -8.493892,-7.7757072 v -1.7279937 c 0,-3.0485291 -0.597614,-4.8206289 -1.151625,-7.1997888 l -0.298953,-0.425847 0.01095,-0.294005 c -0.831612,-1.571995 -0.967819,-2.164794 -2.59125,-3.023923 H 80.20627 l -0.143987,-0.288078 c -1.667721,0 -1.881611,0.04313 -3.224847,0.374333 -0.687097,0.169359 -2.526453,1.065741 -2.53365,1.065741 -0.612907,0 -1.543209,-1.872059 -2.735342,-1.872059 h -0.719772 c -1.681057,0 -2.787968,0.863997 -4.031033,0.863997 h -0.28792 c -0.455692,0 -4.840578,-2.609189 -5.038804,-2.879858 h -3.311102 c -0.177588,0.665322 -3.210877,4.09702 -3.915965,5.154904 -1.25984,1.889998 -1.982021,3.8564872 -3.462364,5.6085845 -0.782109,0.9254066 -4.060746,3.3489635 -5.231712,3.8389453 -1.043543,0.4364832 -2.072482,0.925195 -2.969763,1.4933877 -1.008248,0.6382544 -1.61499,1.75156814 -2.271845,2.1915173 z m 94.584602,63.9335192 0.88402,-0.004 -0.1643,-0.428017 v 0.288078 z m -2.01563,0.719984 0.57595,-0.287999 h -0.43185 z M 67.105589,24.87322 l 1.151678,1.007931 0.143933,-0.143934 -0.989779,-0.746998 -0.01799,-2.276925 z"
           style="fill:#33695e;fill-rule:evenodd;stroke-width:0.264583"
           id="path877" />
        <path
           d="m 51.269509,59.431957 0.28067,-0.165576 0.0072,0.309536 c 0.735013,1.532255 0.7189,1.983211 1.783953,3.399367 0.916596,1.218618 1.534663,1.62433 2.569898,2.613448 1.214517,1.160648 4.511093,3.349863 6.011545,4.35483 h 0.287893 V 69.655537 L 60.915133,64.75966 c -0.38362,-0.572823 -1.398482,-3.54584 -1.747044,-4.444338 -0.20193,-0.520938 -1.99607,-4.150069 -1.99607,-4.195339 0,-0.466196 1.426475,-0.850821 1.746912,-0.988563 0.298503,-0.128111 1.845759,-0.883338 1.852109,-0.883338 h 2.447449 c -0.158538,-0.594043 -2.125054,-1.750034 -2.678774,-2.504281 -0.682704,-0.929746 -1.864439,-1.926061 -3.39598,-1.97231 l 1.755828,-4.018995 v -0.432011 h -0.287919 c -2.949258,1.56083 -4.509241,3.35526 -6.585903,5.796174 -0.421243,0.49522 -2.618951,3.122215 -2.758942,3.432334 -0.20619,0.457014 -1.164485,4.41026 -1.164485,5.026924 0,0.63082 0.605076,3.302238 0.863706,3.599894 0.652595,-2.801514 1.111859,-1.963975 2.303489,-3.743854 z"
           style="fill:#33695e;fill-rule:evenodd;stroke-width:0.264583"
           id="path879" />
        <path
           d="m 78.334796,105.65414 2.015411,0.72009 0.49268,-0.0443 -0.7806,-0.96382 v -0.28792 c -0.671936,0 -1.529265,0.0847 -1.727491,0.57592 z m -5.902563,-9.071773 0.0222,0.263552 0.625581,0.395552 z m 3.856117,4.206743 -0.329036,-0.53475 -0.102817,0.10269 z m 1.470448,4.28911 v 0.14401 l 1.929765,-0.46538 -0.489982,-0.83063 -1.423193,-1.74067 z m -0.500538,-3.37868 -0.726387,-0.87434 -0.112581,0.1266 z m -9.1449,-11.164807 c -0.142795,-0.612669 -1.645444,-2.693696 -2.195645,-2.853372 z m 6.19043,8.207719 c -0.151051,-0.565891 -0.718,-1.00539 -1.151784,-1.295929 0.15105,0.565732 0.717894,1.005364 1.151784,1.295929 z m 5.038778,5.039838 0.71747,0.71474 0.722154,-0.28281 0.575786,-0.43193 -3.023182,-1.43992 -0.105516,0.111 z M 65.378018,86.934892 c -0.147664,-0.552212 -1.000416,-1.289765 -1.439624,-1.584008 0.14732,0.552159 1.000284,1.289712 1.439624,1.584008 z m -3.167327,-2.447846 0.719852,-0.144066 v -1.296008 l -0.28784,-0.143933 -0.575998,0.143933 c -0.04463,0.168963 -0.143933,0.392536 -0.143933,0.431985 0,0.369464 0.16801,0.758031 0.287919,1.008089 z m 0,0 0.575945,0.143933 c 0.636429,0.08348 0.275008,0.380233 1.041003,0.542687 L 62.930543,84.34298 Z m 10.221542,12.095321 -0.04223,-0.252439 -0.965544,-1.043411 0.04228,0.252519 z M 70.992609,94.710599 70.93829,94.46033 68.11336,90.534733 Z m 0.431853,0.575918 -0.01741,-0.26707 -0.414443,-0.308848 0.01725,0.26707 z m -8.781759,-12.383478 0.28784,0.143933 c 0.813673,-0.544962 0.916728,-0.858308 2.01549,-1.439915 l 0.431985,-0.143934 -0.287919,-0.288078 -0.24982,0.05257 z m 2.879249,-1.007931 -0.143934,-0.431985 -0.431985,0.143934 0.259186,0.02887 z m 1.871477,0.143934 h 0.431853 v -0.863997 l -0.162904,0.718211 z m -1.007772,0.575918 0.428837,0.280141 0.435002,-0.136049 v -0.575945 l -0.164307,0.428043 z m -1.295558,-1.439915 0.287919,0.288078 0.143934,0.431985 0.863705,0.719852 0.699532,-0.0038 0.164307,-0.428043 0.143933,-0.144065 0.268949,-0.145786 0.162904,-0.718211 0.311388,-0.661353 1.569297,0.481965 2.726266,0.6114 v -0.575945 l 0.143986,-0.575919 0.143934,-0.288078 -0.170789,-0.42164 -0.980916,-0.154279 h -2.159397 l -0.432011,-0.144013 -0.833835,0.275643 -0.317923,-0.851693 -0.24519,0.02024 -0.474503,0.843757 0.0431,-0.775574 -0.618966,-0.37629 c -0.200104,0.749247 -0.636587,0.647171 -0.957289,1.058545 -0.326469,0.41865 -0.26199,1.073944 -0.482335,1.533234 z m 76.666801,0.440928 0.36878,-0.01087 0.84907,6.19379 -0.39518,-0.0049 z m 1.21785,-0.0089 0.71978,6.047845 -0.28575,-2.38e-4 -0.72203,-5.615622 -0.16356,-0.573379 z m -7.4862,-14.255406 c -0.72157,0.457941 -1.65661,0.412035 -2.70735,1.17983 -0.87204,0.637196 -1.49219,0.927735 -2.36939,1.661901 -1.70522,1.427109 -2.51897,2.386144 -4.02818,3.890644 -2.63123,2.623344 -4.71638,5.990008 -7.12478,8.857033 -1.16348,1.384882 -2.34294,3.008101 -3.45442,4.464844 -1.19002,1.559692 -2.41613,2.893563 -3.67425,4.388617 -1.38901,1.650603 -6.91411,6.459511 -9.32153,6.659933 l -0.43185,0.287999 h -0.43186 l -2.447393,0.28792 -1.447721,0.05625 -2.151459,-0.34417 -0.435663,0.0072 -0.715963,-0.439209 C 90.258006,95.934905 87.950178,91.301628 85.483044,86.840832 84.280275,84.666063 83.010751,82.183954 81.935775,80.021329 81.54324,79.231707 80.370818,77.671723 79.73849,77.03511 78.741461,76.031307 77.564409,75.892718 76.46324,75.127331 h -1.151679 v 4.751864 l 0.343879,2.872793 -0.05596,0.871061 h -0.575866 l -0.431985,0.143934 v -0.720011 h -0.28784 v 1.151996 0.288078 l 1.580621,-0.136207 0.434763,0.136207 -0.05977,1.305825 0.635688,3.877945 0.287946,1.151863 0.287919,1.295982 0.28784,0.431933 v 0.288078 c 0.49366,2.118968 4.533292,8.257888 5.913014,9.637258 1.171946,1.1719 3.050699,2.30603 4.642353,3.13233 1.007454,0.52289 4.439603,2.59559 5.136885,2.7818 l 0.275617,0.008 0.156236,0.28043 5.470658,2.44784 0.575839,0.288 0.863862,0.28795 0.29393,-0.0109 0.42577,0.29888 c 0.62317,0.0519 1.50201,0.45405 2.535,0.63254 0.96112,0.16597 1.75604,0.37536 2.79172,0.37536 l 1.58766,0.0327 1.57951,-0.17661 1.29569,-0.28799 1.43962,-0.43202 0.43202,-0.28792 h 0.28792 c 2.44943,-1.17562 4.48913,-2.02281 6.70822,-3.51403 2.11695,-1.42269 4.18036,-2.74368 6.24855,-4.11774 2.18528,-1.45193 3.84451,-2.75341 5.87439,-4.347897 1.31699,-1.034468 4.08794,-4.145254 4.49098,-5.875814 l 1.73019,-0.03389 2.75011,0.176477 -0.30533,-4.030345 c -0.23926,-0.377111 -0.14393,-1.247563 -0.14393,-1.871848 h 0.57592 l 1.58355,-0.144145 c 0.546,-0.346445 1.06791,-0.01156 1.29569,-0.575945 l -0.86383,-5.759688 -0.14394,-0.432011 h -0.57592 -0.71977 l -0.59626,0.14679 0.88418,6.476921 -0.42638,-7.94e-4 -0.7254,-6.335077 h -0.86368 l -1.58356,0.144065 -0.42802,0.164333 0.13994,-3.476334 3.74317,-0.575918 -0.14399,-0.287999 -0.71985,-6.047793 -0.28792,-0.28784 h -0.43185 c 0.40484,0.843888 0.86384,4.324561 0.86384,5.615701 l 0.16208,0.862569 -0.45016,0.0013 V 77.43129 c -0.0751,-0.903817 -0.36066,-2.17252 -0.4317,-3.167856 -0.0491,-0.686541 -0.0578,-2.670731 -0.57592,-2.879831 v 0.719852 l 0.72285,5.759476 -0.43493,2.65e-4 -0.71993,-6.047714 c -0.13882,-0.146473 -0.28543,-0.293158 -0.43185,-0.431985 v -0.143933 l -0.46424,-4.117419 -1.2633,0.517498 -0.42802,0.164333 -0.004,-0.596344 z m 0,0 1.58356,-0.144013 0.004,0.596344 0.42802,-0.164332 h -0.28784 v -0.576078 h -0.71994 c -0.53213,0 -0.69884,0.07342 -1.00777,0.288079 z m -63.920102,12.239545 0.980916,0.154279 0.170789,0.42164 0.616796,-1.243039 1.974612,0.955119 v -4.751864 h 1.151679 l -1.295612,-0.143986 v 4.17584 c -0.967264,-0.02151 -0.831903,-0.431986 -1.583637,-0.431986 l -0.40214,0.0123 -0.317765,0.851694 z m 0.863785,1.439916 1.718707,1.58e-4 0.15285,3.455776 v -0.288078 -1.151996 h 0.28784 v 0.720011 l 0.431985,-0.143934 c -0.793406,-0.320251 0.06482,-2.880016 -0.863838,-2.880016 h -1.583558 v -0.28784 z m -4.318873,-4.607851 1.456558,2.026496 -0.592878,0.997426 0.432011,0.144013 c 0.01979,-0.890032 0.431853,-0.957739 0.431853,-1.439915 0,-0.0358 -1.290082,-1.648672 -1.400916,-1.868567 L 68.4012,75.271265 Z m 0,0 0.28784,-1.151996 c -0.149992,-0.224102 -0.19087,-0.431985 -0.575918,-0.431985 -0.335704,0 -0.719693,0.38436 -0.719693,0.720063 v 0.431932 c 0,0.278157 0.256646,0.575998 0.431826,0.575998 0.329724,0 0.167402,-0.04882 0.575945,-0.144012 z m 79.31962,7.492497 c 0.0281,0.943425 0.41392,2.148602 0.43648,3.163067 l -0.35901,-0.0096 -0.82304,-6.178127 c 0.70162,0.175339 0.72097,2.199614 0.74557,3.024664 z m -1.58078,-2.884329 0.43373,-2.65e-4 0.74803,6.188261 -0.34012,0.0068 z m 2.01726,-0.144304 0.77605,6.040729 -0.34419,0.007 -0.7197,-5.759847 -0.16433,-0.428017 -0.84344,-0.004 -1.15178,0.144092 v 0.28792 l 0.79629,6.03758 -0.36428,0.01027 -0.71993,-5.327783 -0.162,-0.862568 -0.26985,-0.0013 h -0.14394 l 0.15624,0.280432 -0.0123,0.727499 0.63481,4.455371 -0.0589,0.87249 h -0.28794 l -0.71978,-6.047793 -0.57591,-0.144065 -1.00778,0.144065 h 0.57592 l 0.14394,0.432012 v -0.287999 l 0.42809,-0.164333 0.004,0.596318 c 0,0.973297 1.28609,5.271003 0.43198,5.615702 -0.22778,0.564383 -0.74969,0.2295 -1.29569,0.575945 l 6.0465,-0.863864 0.45646,-0.183833 -0.31253,-0.2481 -0.71985,-5.471848 -0.28792,-0.719984 h -0.28795 z m 1.29572,5.903833 0.31253,0.2481 -0.45646,0.183833 1.43962,-0.287999 h -0.28792 -0.57591 l -0.14394,-0.575919 v 0.431985 z m -0.43185,-6.047925 0.71977,5.61594 0.14394,0.575919 h 0.57591 0.28792 l 0.71978,-0.143934 v -0.144145 h -0.43186 v -0.575918 l -0.71977,-5.039783 -0.16372,-0.573432 -0.4122,0.141446 0.9447,6.179926 -0.51269,0.01191 -0.71993,-6.191832 -0.11993,-0.16801 z m -0.57592,-0.143907 0.28792,0.719985 v -0.576078 h 0.288 l 0.31192,-0.311917 0.11993,0.16801 h 0.28792 l 0.4122,-0.141446 0.16372,0.573432 v -0.575919 l 0.26752,0.0038 0.16433,0.428175 0.007,-0.554408 0.28072,-0.165602 -1.29315,0.161184 -0.29046,-0.01725 c -0.18722,0 -1.00777,0.130942 -1.00777,0.288078 z m -0.57579,0.575919 v -0.28792 h 0.28784 v -0.287999 l -1.29561,0.143907 0.84344,0.004 z m -2.44747,0.720063 v -0.720063 h 0.28792 v -0.28792 l -0.71977,0.143987 0.26985,0.0013 z m -0.86371,-0.575997 0.26895,0.0019 0.16291,0.718052 0.0123,-0.727498 -0.15624,-0.280432 -0.86383,0.143933 z m -3.31123,8.783637 0.004,-1.707594 0.42802,-0.164254 h -0.57592 c 0,0.624285 -0.0953,1.494737 0.14393,1.871848 z m -2.59141,-11.663627 -0.13994,3.476334 0.42802,-0.164333 h -0.28808 l 0.0113,-1.50413 12.36728,-1.663488 0.14632,1.583611 c 0.35422,-0.558377 0.0717,-1.422533 -0.14394,-1.871927 l -12.38483,1.699815 z m 10.65345,-7.775707 0.71977,5.903859 0.86379,0.287999 0.14398,1.439916 c 0.21564,0.449394 0.49816,1.31355 0.14394,1.871927 h -0.14394 l -0.28072,0.165602 -0.007,0.554408 0.57579,5.18377 0.14399,0.575918 v 0.144145 h 0.86386 v -1.295982 h 0.57576 c 0.38888,0 0.39706,-0.06871 0.71821,-0.143854 l -0.28988,-2.186622 -1.40316,0.165814 -0.3207,-2.731188 1.14718,5.3e-4 -0.13957,-1.728444 c -0.3057,-0.440029 -0.28784,-0.579014 -0.28784,-1.295929 l -0.14401,-1.583928 -0.16426,-0.428043 -1.27537,-0.0039 V 75.27135 l -0.28792,-2.159846 h 1.0077 l 0.2808,-0.165524 0.007,-0.554487 -0.1439,-1.295982 c -0.37965,-0.188172 0.11848,-0.143934 -0.43201,-0.143934 h -1.15171 v -0.431985 -0.432011 h -0.8637 z m 2.87925,5.327861 v -0.575918 h -1.00777 c -0.55036,0 -0.0523,0.04408 -0.43186,-0.144092 v 0.288078 l 1.27537,0.0039 z m 0.43185,2.879858 -0.28784,-1.29593 c 0,0.716915 -0.0179,0.855901 0.28784,1.29593 z m -3.02318,-2.015861 h 1.29564 l -0.86379,-0.287999 h -0.28792 l -0.14393,-0.432011 z m -2.37501,-6.32669 0.35955,-0.0091 0.75668,5.75474 -0.0369,0.581025 -0.28012,-0.0011 z m -0.84338,0.141817 0.33906,-0.007 0.87728,6.190059 -0.39098,-0.0056 z m 2.06663,0.13716 0.74901,5.89997 -0.31702,0.0038 -0.71994,-5.90378 -0.16422,-0.428175 0.45217,-0.0038 z m -2.59141,-0.288052 0.15645,0.280405 -0.0123,0.295513 c 0,0.418413 0.26805,2.524125 0.37269,3.083084 0.12771,0.682519 0.61243,2.597335 0.0592,2.82075 v 0.287998 l 3.16717,-0.431985 v -0.72001 l -0.57584,-4.895692 -0.16132,-1.006951 -0.70255,-0.0011 z m -0.71969,0.431985 0.71969,5.759847 0.14018,0.452332 -0.42802,-0.164412 -0.7198,-5.327756 -0.16221,-0.862648 -0.41371,0.142637 0.71986,5.90378 0.14001,0.452385 -0.42785,-0.164306 -0.71993,-5.471848 -0.16291,-0.718132 -0.26895,-0.0019 v 0.575918 l 0.71977,5.759847 -0.3402,-0.01296 -0.66749,-5.026792 -0.32715,-1.143688 -0.24877,-0.0084 v 0.288078 l 0.76079,5.465683 -0.0409,0.582004 h -0.28792 l -0.86384,-6.19162 h -0.28787 v 0.431932 c 0,1.358239 0.1347,1.965828 0.31885,3.136953 0.0822,0.522737 0.6318,2.499201 -0.031,2.766748 l 0.14399,0.287999 4.03103,-0.575945 v -0.287999 l -0.86384,-6.1917 -0.43185,-0.144145 z m -3.8871,0.288078 0.28792,0.287841 0.26641,-0.136711 0.16557,0.280803 V 71.23957 h 0.28787 l 0.43185,0.143934 v -0.288079 l 0.24877,0.0084 0.32715,1.143688 -0.14393,-1.152076 0.26752,0.004 0.16433,0.428017 v -0.575919 l 0.26895,0.0019 0.16291,0.718132 v -0.72001 h 0.28791 l 0.41371,-0.142637 0.16221,0.862647 v -0.72001 h 0.28795 v -0.288079 z m -1.29572,0.575919 v -0.288078 l 0.26829,0.0026 0.16372,0.573379 v -0.719852 h -0.86386 c 0.14642,0.138827 0.29303,0.285512 0.43185,0.431985 z m 5.61467,-1.00793 0.26638,0.0072 0.16561,0.280643 0.0123,-0.295513 -0.15645,-0.280405 -0.71969,0.143907 z m 5.90249,2.303859 0.4509,-0.0019 -0.16291,-0.718211 -0.007,0.554487 z m -3.31119,-2.879936 0.70255,0.0011 0.16132,1.006951 0.0397,-0.888603 0.24818,0.312446 -0.14393,-0.575918 h 0.8637 c 0,-0.357161 -1.76474,0.01611 -1.87156,0.143986 z"
           style="fill:#33695e;fill-rule:evenodd;stroke-width:0.264583"
           id="path881" />
      </g>
      <g
         id="g1608"
         transform="translate(29.48214,-87.690476)">
        <path
           d="m 73.871937,147.26857 0.436033,-0.008 0.57158,0.29602 h 0.288078 c 0.604044,0 0.30271,-0.0107 0.431853,0.14393 1.327203,0.8423 5.887191,-0.57766 6.622044,-1.00825 1.344666,-0.78787 3.356108,-2.51317 3.743325,-4.17555 v -23.03917 h -5.902563 l -0.143933,22.89511 c -0.456459,0.5253 -0.884925,1.00806 -1.871477,1.00806 H 76.46324 c -0.03051,0 -0.99105,-0.40754 -1.01653,-0.4232 -0.331284,-0.20505 -0.423095,-0.63294 -0.423095,-1.16078 v -22.4631 h -6.190562 v 22.03109 c 0,1.9317 0.806318,2.69272 1.639359,3.8322 0.421798,0.5769 2.590932,2.0043 3.399525,2.07158 z m 6.046417,-4.89585 0.143933,-22.89511 h 5.902563 v 23.03917 l 0.143934,-23.18308 h -6.19043 z m -4.318873,5.32786 c -0.129143,-0.1546 0.172191,-0.14393 -0.431853,-0.14393 H 74.87955 l -0.57158,-0.29602 -0.436033,0.008 c 0.47879,0.4164 0.853784,0.43201 1.727544,0.43201 z"
           style="fill:#26985a;fill-rule:evenodd;stroke-width:0.264583"
           id="path863" />
        <path
           d="m 104.53619,125.38139 c 0.49252,-0.51922 0.86289,-0.71993 1.87164,-0.71993 h 0.57578 l 1.43841,0.15375 0.43312,0.27826 c 0.29139,0.21352 0.43194,0.33044 0.43194,0.86384 v 3.16793 h -4.89479 z m -1.43962,-6.33577 -0.15629,0.28044 -0.41955,0.008 c -1.04738,0.27967 -1.92929,1.14067 -2.627261,1.83584 -0.479531,0.4776 -1.691613,2.14704 -1.691613,2.91584 v 22.89511 h 6.190434 v -13.24747 h 4.89479 v 13.24747 h 6.19043 v -22.60703 c 0,-1.66463 -2.29201,-3.84831 -3.45504,-4.46384 h -0.28792 l -0.14406,-0.28792 c -0.87196,-0.46156 -2.56427,-1.00809 -3.88697,-1.00809 h -2.30346 c -0.96975,0 -1.44915,0.36092 -2.30349,0.43201 z m -0.57584,0.28808 0.41955,-0.008 0.15629,-0.28044 z m 9.50174,0.57592 -0.14398,-0.28792 h -0.288 l 0.14406,0.28792 z"
           style="fill:#26985a;fill-rule:evenodd;stroke-width:0.264583"
           id="path865" />
        <path
           d="m 87.260515,146.98052 h 10.365528 v -5.03979 h -5.326724 v -22.60708 h -5.038804 z"
           style="fill:#26985a;fill-rule:evenodd;stroke-width:0.264583"
           id="path867" />
        <path
           d="m 128.86627,137.76487 0.1479,9.35977 h 6.04253 v -28.07902 h -6.0465 v 8.06371 h -0.28784 v -0.288 c -0.59507,-0.8886 -4.953,-7.91964 -5.47065,-7.91964 h -6.04666 v 28.0788 h 6.19059 l 0.0613,-17.31976 z m -0.14391,-10.94354 v 0.288 h 0.28784 v -8.06371 h 6.0465 v 28.07902 h -6.04253 l -0.1479,-9.35977 v 9.5037 h 6.33436 v -28.36688 h -6.32986 z"
           style="fill:#26985a;fill-rule:evenodd;stroke-width:0.264583"
           id="path869" />
        <path
           d="m 147.00571,125.8134 0.15285,3.45578 -4.90366,-0.14394 c 0,-2.48054 -0.64296,-4.31977 1.87148,-4.31977 h 1.29569 c 0.90728,0 1.40671,0.24818 1.58364,1.00793 z m -5.75858,-6.76778 -0.42577,0.29896 -0.294,-0.0109 c -1.4886,0.39741 -4.1805,2.79937 -4.31896,4.46384 v 23.18295 h 5.89958 l 0.14692,-13.10341 4.89474,-0.15081 1.3e-4,13.25422 h 6.19043 v -22.89511 c -1.25865,-1.87978 -1.11683,-2.48415 -3.16344,-3.8916 -1.34937,-0.92789 -3.33396,-1.58017 -5.6184,-1.58017 l -0.44354,-0.0721 z m 12.09307,27.93487 h -6.19043 l -1.3e-4,-13.25422 -4.89474,0.15081 h 4.75081 l 8e-5,13.25303 z m -11.0853,-13.10341 -0.14692,13.10341 h -5.89958 v -23.18295 l -0.14393,23.3271 h 6.19043 z m -1.72754,-14.54338 0.294,0.0109 0.42577,-0.29896 -0.29401,-0.0109 z m 1.72754,9.79154 4.90366,0.14394 -0.15285,-3.45578 v 3.31184 z"
           style="fill:#26985a;fill-rule:evenodd;stroke-width:0.264583"
           id="path871" />
        <path
           d="m 62.354783,159.79617 0.143934,-0.28806 h 0.431853 c 1.102677,-0.58356 3.311128,-1.89452 3.311128,-3.4559 v -36.71856 h -6.334363 v 34.12675 c 0,2.28211 -3.023209,1.9064 -3.023209,2.7359 v 5.03978 h 0.431827 c 2.132806,0 3.466835,-1.07368 5.03883,-1.43991 z"
           style="fill:#29995b;fill-rule:evenodd;stroke-width:0.264583"
           id="path873" />
        <path
           d="m 62.354783,159.79617 0.575787,-0.28806 h -0.431853 z"
           style="fill:#91cbad;fill-rule:evenodd;stroke-width:0.264583"
           id="path875" />
        <path
           d="m 70.178777,148.52926 h 1.035182 v 3.254 c 0,0.42482 -0.03834,0.75277 -0.112527,0.98134 -0.100515,0.29922 -0.282443,0.53972 -0.546867,0.72046 -0.264531,0.18193 -0.612749,0.27165 -1.044787,0.27165 -0.507418,0 -0.897625,-0.14121 -1.171654,-0.42601 -0.272918,-0.28368 -0.411666,-0.70011 -0.412936,-1.24949 l 0.977768,-0.11248 c 0.01196,0.29438 0.05503,0.50269 0.129249,0.62471 0.112554,0.18431 0.283686,0.27649 0.51226,0.27649 0.230928,0 0.39497,-0.0658 0.490643,-0.1987 0.09573,-0.13163 0.143669,-0.40566 0.143669,-0.82217 z m 4.583668,5.14011 v -0.55772 c -0.136472,0.19871 -0.314828,0.35545 -0.534987,0.47035 -0.221457,0.11364 -0.454766,0.17116 -0.700114,0.17116 -0.250111,0 -0.473922,-0.0551 -0.672624,-0.16393 -0.198649,-0.11018 -0.342212,-0.26453 -0.432038,-0.46316 -0.08853,-0.19872 -0.132821,-0.47392 -0.132821,-0.82462 v -2.35527 h 0.984911 v 1.71021 c 0,0.5242 0.01799,0.84495 0.05514,0.96343 0.03588,0.11721 0.101679,0.21058 0.197432,0.28006 0.09575,0.0694 0.217805,0.10287 0.365019,0.10287 0.168698,0 0.319484,-0.0454 0.452384,-0.13766 0.132821,-0.0933 0.223811,-0.20701 0.272839,-0.34348 0.04911,-0.13756 0.07421,-0.47273 0.07421,-1.00526 v -1.57017 h 0.984991 v 3.72319 z m 1.844119,0.24535 1.125009,0.13636 c 0.01916,0.13171 0.06226,0.22146 0.129249,0.27057 0.09337,0.0706 0.241723,0.10525 0.441616,0.10525 0.257307,0 0.450003,-0.0383 0.579252,-0.11602 0.08617,-0.0515 0.151977,-0.13409 0.196241,-0.24903 0.02995,-0.0813 0.04548,-0.23212 0.04548,-0.45236 v -0.54329 c -0.294402,0.40209 -0.666617,0.60317 -1.115351,0.60317 -0.5003,0 -0.896461,-0.21188 -1.188455,-0.63431 -0.228574,-0.3351 -0.343482,-0.75041 -0.343482,-1.24825 0,-0.62471 0.150786,-1.10101 0.451194,-1.43135 0.300408,-0.32906 0.673814,-0.49427 1.120166,-0.49427 0.459608,0 0.840132,0.20228 1.139349,0.60683 v -0.52184 h 0.921544 v 3.34145 c 0,0.43915 -0.03596,0.7671 -0.108876,0.98491 -0.07184,0.21778 -0.173541,0.38775 -0.30406,0.51226 -0.13163,0.12322 -0.306334,0.22016 -0.524113,0.2908 -0.219075,0.0694 -0.495485,0.10525 -0.829363,0.10525 -0.63193,0 -1.079552,-0.1089 -1.342813,-0.32432 -0.26453,-0.21659 -0.39616,-0.49062 -0.39616,-0.82214 0,-0.0335 0.0013,-0.073 0.0036,-0.11967 z m 0.879661,-2.18414 c 0,0.39497 0.07657,0.68451 0.229817,0.8677 0.153167,0.18312 0.341048,0.27522 0.566049,0.27522 0.240507,0 0.443971,-0.0946 0.610368,-0.28241 0.165126,-0.18796 0.24892,-0.46681 0.24892,-0.83659 0,-0.38537 -0.08022,-0.67135 -0.239343,-0.8581 -0.157982,-0.18785 -0.359092,-0.28125 -0.60198,-0.28125 -0.23696,0 -0.430847,0.0922 -0.584014,0.2753 -0.153247,0.18431 -0.229817,0.46315 -0.229817,0.84013 z m 4.333478,-0.64862 -0.894001,-0.16156 c 0.100595,-0.36028 0.272918,-0.6259 0.518213,-0.79952 0.246539,-0.17232 0.610367,-0.25969 1.093867,-0.25969 0.440425,0 0.767133,0.0527 0.98253,0.15682 0.214233,0.10414 0.36621,0.23577 0.453575,0.39614 0.08737,0.16039 0.13171,0.45357 0.13171,0.88204 l -0.01077,1.15004 c 0,0.32676 0.01553,0.56848 0.04784,0.72411 0.03111,0.15436 0.09099,0.32194 0.177165,0.49903 h -0.975413 c -0.02511,-0.0658 -0.05742,-0.16277 -0.09456,-0.29083 -0.0155,-0.0586 -0.02746,-0.0969 -0.03469,-0.1161 -0.168778,0.16394 -0.348218,0.28607 -0.539723,0.36859 -0.191506,0.0814 -0.396161,0.12213 -0.61394,0.12213 -0.38301,0 -0.6858,-0.10416 -0.905959,-0.31117 -0.22143,-0.2082 -0.331523,-0.47154 -0.331523,-0.78984 0,-0.20949 0.05022,-0.39735 0.150786,-0.56255 0.100515,-0.16513 0.241723,-0.29083 0.42246,-0.37817 0.18071,-0.0874 0.44278,-0.16394 0.783881,-0.22977 0.459608,-0.0862 0.779092,-0.16759 0.956257,-0.24177 v -0.0981 c 0,-0.19023 -0.04672,-0.32432 -0.140017,-0.40566 -0.0934,-0.0802 -0.269293,-0.12094 -0.528982,-0.12094 -0.175974,0 -0.312341,0.0348 -0.410554,0.10417 -0.09813,0.0682 -0.177085,0.18912 -0.238151,0.36264 z m 1.317704,0.79943 c -0.125704,0.0419 -0.325596,0.0921 -0.599625,0.15079 -0.272838,0.0586 -0.451194,0.1161 -0.536152,0.17113 -0.128085,0.0921 -0.192696,0.20704 -0.192696,0.34706 0,0.13882 0.05146,0.2573 0.154437,0.35782 0.10287,0.10057 0.23331,0.15079 0.39251,0.15079 0.178355,0 0.347027,-0.0586 0.508608,-0.17471 0.119671,-0.0885 0.197512,-0.19743 0.23458,-0.32668 0.02638,-0.0838 0.03834,-0.24418 0.03834,-0.47995 z m 5.326856,1.78798 h -0.984991 v -1.90053 c 0,-0.40209 -0.02154,-0.66178 -0.06342,-0.78026 -0.04191,-0.11729 -0.111284,-0.20939 -0.205846,-0.27529 -0.09456,-0.0646 -0.208201,-0.0981 -0.341101,-0.0981 -0.171159,0 -0.324326,0.0468 -0.459502,0.14005 -0.135281,0.0946 -0.228653,0.21785 -0.278871,0.37221 -0.0503,0.15436 -0.07538,0.43924 -0.07538,0.85566 v 1.6863 h -0.984991 v -3.72319 h 0.91432 v 0.54695 c 0.325517,-0.42127 0.734801,-0.63194 1.227905,-0.63194 0.216588,0 0.416507,0.0395 0.596054,0.11729 0.17944,0.079 0.315912,0.17836 0.408093,0.30041 0.0921,0.12203 0.156739,0.25969 0.192617,0.41413 0.03715,0.15436 0.05511,0.37452 0.05511,0.66177 z m 4.413647,0 h -0.914347 v -0.54695 c -0.151977,0.21305 -0.331523,0.37105 -0.538559,0.47511 -0.20701,0.10414 -0.415237,0.15563 -0.625899,0.15563 -0.428466,0 -0.794676,-0.17235 -1.09982,-0.51702 -0.303953,-0.34467 -0.457226,-0.82579 -0.457226,-1.44211 0,-0.63193 0.148431,-1.11178 0.445267,-1.43976 0.296757,-0.32787 0.672544,-0.49308 1.12612,-0.49308 0.415316,0 0.775493,0.17352 1.079553,0.51946 v -1.85139 h 0.984911 z m -2.629297,-1.94233 c 0,0.39724 0.05503,0.6845 0.165127,0.86286 0.157982,0.25611 0.380629,0.38536 0.6654,0.38536 0.227383,0 0.420079,-0.0969 0.579279,-0.28961 0.157903,-0.1927 0.238125,-0.48115 0.238125,-0.86413 0,-0.4272 -0.07776,-0.73599 -0.231008,-0.92385 -0.154358,-0.18796 -0.35179,-0.28252 -0.593592,-0.28252 -0.23331,0 -0.428387,0.0934 -0.58637,0.27887 -0.158009,0.18548 -0.236961,0.46316 -0.236961,0.83302 z m 3.372485,0.0275 c 0,-0.32668 0.08133,-0.64386 0.241697,-0.95022 0.161581,-0.30515 0.390128,-0.53973 0.6858,-0.70009 0.295566,-0.16158 0.625898,-0.243 0.990918,-0.243 0.562451,0 1.024413,0.18312 1.384696,0.54933 0.360204,0.36621 0.53975,0.82818 0.53975,1.38708 0,0.56245 -0.181927,1.02926 -0.544592,1.4002 -0.363828,0.37105 -0.820949,0.55536 -1.372658,0.55536 -0.342291,0 -0.666591,-0.0766 -0.976577,-0.23103 -0.309986,-0.15436 -0.545756,-0.38055 -0.707337,-0.67858 -0.160364,-0.29792 -0.241697,-0.66058 -0.241697,-1.08905 z m 1.0101,0.0527 c 0,0.36978 0.08734,0.65228 0.263234,0.84852 0.174731,0.19627 0.391319,0.29437 0.648652,0.29437 0.257308,0 0.472731,-0.0981 0.646245,-0.29437 0.174705,-0.19624 0.262149,-0.48112 0.262149,-0.85574 0,-0.36375 -0.08744,-0.64506 -0.262149,-0.84133 -0.173514,-0.19624 -0.388937,-0.29437 -0.646245,-0.29437 -0.257333,0 -0.473921,0.0981 -0.648652,0.29437 -0.175895,0.19627 -0.263234,0.47996 -0.263234,0.84855 z m 7.754992,0.67739 0.98253,0.16393 c -0.12679,0.36026 -0.32552,0.63429 -0.59833,0.82225 -0.27165,0.18901 -0.61278,0.28241 -1.02206,0.28241 -0.64746,0 -1.1262,-0.21068 -1.43737,-0.63431 -0.24527,-0.33872 -0.368596,-0.76711 -0.368596,-1.28294 0,-0.61759 0.161586,-1.10109 0.484686,-1.4505 0.32195,-0.34951 0.73007,-0.52422 1.22315,-0.52422 0.55406,0 0.99091,0.18312 1.31167,0.54933 0.31948,0.36621 0.47276,0.92628 0.45953,1.68146 h -2.46894 c 0.007,0.29207 0.0862,0.51945 0.23816,0.68101 0.15197,0.16277 0.34229,0.2441 0.56848,0.2441 0.15436,0 0.28361,-0.0418 0.38894,-0.12562 0.10533,-0.085 0.18547,-0.22024 0.23815,-0.4069 z m 0.0562,-0.99576 c -0.007,-0.28599 -0.0801,-0.50261 -0.22016,-0.65101 -0.14002,-0.14843 -0.31117,-0.22265 -0.51226,-0.22265 -0.21542,0 -0.39251,0.0791 -0.53252,0.23577 -0.14002,0.15563 -0.20947,0.36859 -0.20701,0.63789 z m 5.16896,2.18056 h -0.985 v -1.90053 c 0,-0.40209 -0.0215,-0.66178 -0.0634,-0.78026 -0.0419,-0.11729 -0.11126,-0.20939 -0.20582,-0.27529 -0.0946,-0.0646 -0.2082,-0.0981 -0.3411,-0.0981 -0.17116,0 -0.32433,0.0468 -0.4595,0.14005 -0.13529,0.0946 -0.22866,0.21785 -0.27888,0.37221 -0.0503,0.15436 -0.0754,0.43924 -0.0754,0.85566 v 1.6863 h -0.98499 v -3.72319 h 0.91434 v 0.54695 c 0.32552,-0.42127 0.73481,-0.63194 1.22791,-0.63194 0.21659,0 0.41651,0.0395 0.59603,0.11729 0.17946,0.079 0.31593,0.17836 0.40812,0.30041 0.0921,0.12203 0.15673,0.25969 0.19261,0.41413 0.0371,0.15436 0.0551,0.37452 0.0551,0.66177 z m 2.99423,0 v -5.14011 h 0.98491 v 5.14011 z m 2.731,-2.58741 -0.894,-0.16156 c 0.1006,-0.36028 0.27292,-0.6259 0.51819,-0.79952 0.24654,-0.17232 0.61039,-0.25969 1.09389,-0.25969 0.44043,0 0.76711,0.0527 0.98253,0.15682 0.21424,0.10414 0.36621,0.23577 0.45358,0.39614 0.0873,0.16039 0.13171,0.45357 0.13171,0.88204 l -0.0108,1.15004 c 0,0.32676 0.0155,0.56848 0.0478,0.72411 0.0311,0.15436 0.091,0.32194 0.17716,0.49903 h -0.97541 c -0.0251,-0.0658 -0.0574,-0.16277 -0.0946,-0.29083 -0.0155,-0.0586 -0.0275,-0.0969 -0.0347,-0.1161 -0.16878,0.16394 -0.34824,0.28607 -0.53975,0.36859 -0.19148,0.0814 -0.39613,0.12213 -0.61394,0.12213 -0.38298,0 -0.68577,-0.10416 -0.90593,-0.31117 -0.22146,-0.2082 -0.33153,-0.47154 -0.33153,-0.78984 0,-0.20949 0.0502,-0.39735 0.15079,-0.56255 0.10049,-0.16513 0.2417,-0.29083 0.42243,-0.37817 0.18074,-0.0874 0.44281,-0.16394 0.78391,-0.22977 0.45958,-0.0862 0.77907,-0.16759 0.95626,-0.24177 v -0.0981 c 0,-0.19023 -0.0467,-0.32432 -0.14005,-0.40566 -0.0934,-0.0802 -0.26926,-0.12094 -0.52895,-0.12094 -0.17597,0 -0.31237,0.0348 -0.41058,0.10417 -0.0981,0.0682 -0.17709,0.18912 -0.23813,0.36264 z m 1.31771,0.79943 c -0.1257,0.0419 -0.3256,0.0921 -0.59963,0.15079 -0.27283,0.0586 -0.45119,0.1161 -0.53617,0.17113 -0.12806,0.0921 -0.1927,0.20704 -0.1927,0.34706 0,0.13882 0.0515,0.2573 0.15446,0.35782 0.10287,0.10057 0.23331,0.15079 0.39249,0.15079 0.17835,0 0.34705,-0.0586 0.5086,-0.17471 0.11968,-0.0885 0.19754,-0.19743 0.23461,-0.32668 0.0264,-0.0838 0.0383,-0.24418 0.0383,-0.47995 z m 3.95166,1.78798 v -5.14011 h 1.0101 l 2.10396,3.43228 v -3.43228 h 0.96457 v 5.14011 h -1.04241 l -2.07161,-3.35214 v 3.35214 z m 5.90494,-2.58741 -0.894,-0.16156 c 0.10059,-0.36028 0.27292,-0.6259 0.51819,-0.79952 0.24654,-0.17232 0.61039,-0.25969 1.09389,-0.25969 0.44043,0 0.76711,0.0527 0.98253,0.15682 0.21423,0.10414 0.36621,0.23577 0.45358,0.39614 0.0873,0.16039 0.13171,0.45357 0.13171,0.88204 l -0.0108,1.15004 c 0,0.32676 0.0155,0.56848 0.0478,0.72411 0.0311,0.15436 0.091,0.32194 0.17717,0.49903 h -0.97541 c -0.0251,-0.0658 -0.0574,-0.16277 -0.0946,-0.29083 -0.0155,-0.0586 -0.0275,-0.0969 -0.0347,-0.1161 -0.16878,0.16394 -0.34825,0.28607 -0.53975,0.36859 -0.19148,0.0814 -0.39614,0.12213 -0.61394,0.12213 -0.38299,0 -0.68578,-0.10416 -0.90594,-0.31117 -0.22145,-0.2082 -0.33152,-0.47154 -0.33152,-0.78984 0,-0.20949 0.0502,-0.39735 0.15079,-0.56255 0.10049,-0.16513 0.24169,-0.29083 0.42243,-0.37817 0.18074,-0.0874 0.44281,-0.16394 0.78391,-0.22977 0.45958,-0.0862 0.77906,-0.16759 0.95623,-0.24177 v -0.0981 c 0,-0.19023 -0.0467,-0.32432 -0.14002,-0.40566 -0.0934,-0.0802 -0.26927,-0.12094 -0.52895,-0.12094 -0.17598,0 -0.31237,0.0348 -0.41058,0.10417 -0.0981,0.0682 -0.17709,0.18912 -0.23813,0.36264 z m 1.31768,0.79943 c -0.12568,0.0419 -0.32557,0.0921 -0.5996,0.15079 -0.27284,0.0586 -0.45119,0.1161 -0.53618,0.17113 -0.12806,0.0921 -0.19269,0.20704 -0.19269,0.34706 0,0.13882 0.0515,0.2573 0.15446,0.35782 0.10287,0.10057 0.23331,0.15079 0.39248,0.15079 0.17836,0 0.34706,-0.0586 0.50861,-0.17471 0.11967,-0.0885 0.19754,-0.19743 0.23461,-0.32668 0.0264,-0.0838 0.0383,-0.24418 0.0383,-0.47995 z m 3.64654,-1.93521 v 0.7851 h -0.67257 v 1.50071 c 0,0.30404 0.006,0.48112 0.0192,0.53142 0.0131,0.0503 0.0419,0.0909 0.0874,0.12443 0.0454,0.0323 0.10168,0.0491 0.16629,0.0491 0.0922,0 0.22383,-0.0323 0.39735,-0.0946 l 0.0838,0.76356 c -0.22976,0.0981 -0.48826,0.14724 -0.77906,0.14724 -0.1772,0 -0.33756,-0.03 -0.47996,-0.0885 -0.1424,-0.0599 -0.24654,-0.13764 -0.31353,-0.2322 -0.067,-0.0946 -0.11255,-0.22265 -0.13885,-0.3842 -0.0204,-0.11364 -0.0311,-0.34587 -0.0311,-0.69408 v -1.62285 h -0.45238 v -0.7851 h 0.45238 v -0.74083 l 0.98854,-0.57441 v 1.31524 z m 3.1356,3.72319 v -0.55772 c -0.13644,0.19871 -0.3148,0.35545 -0.53498,0.47035 -0.22143,0.11364 -0.45474,0.17116 -0.70012,0.17116 -0.25011,0 -0.47392,-0.0551 -0.67262,-0.16393 -0.19863,-0.11018 -0.34221,-0.26453 -0.43204,-0.46316 -0.0885,-0.19872 -0.1328,-0.47392 -0.1328,-0.82462 v -2.35527 h 0.98492 v 1.71021 c 0,0.5242 0.018,0.84495 0.0551,0.96343 0.0359,0.11721 0.10168,0.21058 0.19743,0.28006 0.0958,0.0694 0.21781,0.10287 0.36505,0.10287 0.16867,0 0.31945,-0.0454 0.45235,-0.13766 0.13283,-0.0933 0.22384,-0.20701 0.27284,-0.34348 0.0491,-0.13756 0.0742,-0.47273 0.0742,-1.00526 v -1.57017 h 0.98499 v 3.72319 z m 2.87822,0 h -0.98499 v -3.72319 h 0.91435 v 0.52895 c 0.15681,-0.25011 0.29802,-0.41523 0.42243,-0.49426 0.1257,-0.079 0.26691,-0.11968 0.42608,-0.11968 0.22503,0 0.44043,0.0623 0.64866,0.18675 l -0.30515,0.85804 c -0.16523,-0.10652 -0.31959,-0.16039 -0.46199,-0.16039 -0.13882,0 -0.25492,0.0371 -0.35067,0.11375 -0.097,0.0754 -0.17116,0.21304 -0.2262,0.41166 -0.055,0.1987 -0.0825,0.61513 -0.0825,1.24825 z m 2.58741,-2.58741 -0.894,-0.16156 c 0.1006,-0.36028 0.27292,-0.6259 0.51819,-0.79952 0.24656,-0.17232 0.61039,-0.25969 1.09389,-0.25969 0.44043,0 0.76711,0.0527 0.98253,0.15682 0.21424,0.10414 0.36621,0.23577 0.45358,0.39614 0.0874,0.16039 0.13171,0.45357 0.13171,0.88204 l -0.0108,1.15004 c 0,0.32676 0.0155,0.56848 0.0478,0.72411 0.0311,0.15436 0.091,0.32194 0.17716,0.49903 h -0.97541 c -0.0251,-0.0658 -0.0574,-0.16277 -0.0946,-0.29083 -0.0155,-0.0586 -0.0275,-0.0969 -0.0347,-0.1161 -0.16878,0.16394 -0.34822,0.28607 -0.53973,0.36859 -0.1915,0.0814 -0.39616,0.12213 -0.61396,0.12213 -0.38299,0 -0.68577,-0.10416 -0.90593,-0.31117 -0.22143,-0.2082 -0.33153,-0.47154 -0.33153,-0.78984 0,-0.20949 0.0502,-0.39735 0.15079,-0.56255 0.10051,-0.16513 0.24172,-0.29083 0.42243,-0.37817 0.18074,-0.0874 0.44281,-0.16394 0.78391,-0.22977 0.45961,-0.0862 0.77909,-0.16759 0.95626,-0.24177 v -0.0981 c 0,-0.19023 -0.0468,-0.32432 -0.14005,-0.40566 -0.0934,-0.0802 -0.26926,-0.12094 -0.52895,-0.12094 -0.17598,0 -0.31234,0.0348 -0.41056,0.10417 -0.0981,0.0682 -0.17708,0.18912 -0.23815,0.36264 z m 1.31771,0.79943 c -0.12571,0.0419 -0.3256,0.0921 -0.59963,0.15079 -0.27284,0.0586 -0.45119,0.1161 -0.53618,0.17113 -0.12805,0.0921 -0.19267,0.20704 -0.19267,0.34706 0,0.13882 0.0515,0.2573 0.15444,0.35782 0.10287,0.10057 0.23331,0.15079 0.39251,0.15079 0.17836,0 0.34703,-0.0586 0.50861,-0.17471 0.11964,-0.0885 0.19751,-0.19743 0.23458,-0.32668 0.0264,-0.0838 0.0383,-0.24418 0.0383,-0.47995 z m 1.93995,1.78798 v -5.14011 h 0.98491 v 5.14011 z m 4.15039,-1.1848 0.98253,0.16393 c -0.12682,0.36026 -0.32552,0.63429 -0.59836,0.82225 -0.27165,0.18901 -0.61275,0.28241 -1.02206,0.28241 -0.64743,0 -1.1262,-0.21068 -1.43735,-0.63431 -0.24527,-0.33872 -0.36859,-0.76711 -0.36859,-1.28294 0,-0.61759 0.16156,-1.10109 0.48469,-1.4505 0.32195,-0.34951 0.73004,-0.52422 1.22314,-0.52422 0.55407,0 0.99092,0.18312 1.31168,0.54933 0.31948,0.36621 0.47273,0.92628 0.4595,1.68146 h -2.46891 c 0.007,0.29207 0.0862,0.51945 0.23813,0.68101 0.152,0.16277 0.34231,0.2441 0.56851,0.2441 0.15433,0 0.2836,-0.0418 0.38893,-0.12562 0.10533,-0.085 0.18548,-0.22024 0.23816,-0.4069 z m 0.0562,-0.99576 c -0.007,-0.28599 -0.0801,-0.50261 -0.22019,-0.65101 -0.14001,-0.14843 -0.31115,-0.22265 -0.51223,-0.22265 -0.21542,0 -0.39251,0.0791 -0.53253,0.23577 -0.14004,0.15563 -0.20949,0.36859 -0.20703,0.63789 z m 1.38589,2.18056 v -0.7683 l 1.39546,-1.60131 c 0.22858,-0.26207 0.39854,-0.44765 0.50742,-0.55771 -0.11372,0.007 -0.2645,0.0108 -0.45119,0.0131 l -1.31525,0.007 V 149.946 h 3.07814 v 0.69773 l -1.42296,1.64074 -0.50149,0.5434 c 0.27284,-0.0168 0.44281,-0.0251 0.50861,-0.0251 h 1.52471 v 0.86643 z m 4.72249,-2.58741 -0.89397,-0.16156 c 0.10059,-0.36028 0.27291,-0.6259 0.51818,-0.79952 0.24654,-0.17232 0.6104,-0.25969 1.0939,-0.25969 0.44042,0 0.7671,0.0527 0.98253,0.15682 0.21423,0.10414 0.36621,0.23577 0.45357,0.39614 0.0873,0.16039 0.13171,0.45357 0.13171,0.88204 l -0.0108,1.15004 c 0,0.32676 0.0155,0.56848 0.0478,0.72411 0.0311,0.15436 0.091,0.32194 0.1772,0.49903 h -0.97542 c -0.0251,-0.0658 -0.0574,-0.16277 -0.0946,-0.29083 -0.0155,-0.0586 -0.0275,-0.0969 -0.0347,-0.1161 -0.16877,0.16394 -0.34824,0.28607 -0.53975,0.36859 -0.1915,0.0814 -0.39613,0.12213 -0.61394,0.12213 -0.38301,0 -0.68577,-0.10416 -0.90593,-0.31117 -0.22146,-0.2082 -0.33152,-0.47154 -0.33152,-0.78984 0,-0.20949 0.0502,-0.39735 0.15078,-0.56255 0.10049,-0.16513 0.2417,-0.29083 0.42244,-0.37817 0.18073,-0.0874 0.4428,-0.16394 0.78391,-0.22977 0.45958,-0.0862 0.77906,-0.16759 0.95623,-0.24177 v -0.0981 c 0,-0.19023 -0.0467,-0.32432 -0.14002,-0.40566 -0.0934,-0.0802 -0.26927,-0.12094 -0.52896,-0.12094 -0.17597,0 -0.31236,0.0348 -0.41058,0.10417 -0.0981,0.0682 -0.17708,0.18912 -0.23815,0.36264 z m 1.31771,0.79943 c -0.12568,0.0419 -0.32557,0.0921 -0.5996,0.15079 -0.27284,0.0586 -0.4512,0.1161 -0.53618,0.17113 -0.12806,0.0921 -0.1927,0.20704 -0.1927,0.34706 0,0.13882 0.0515,0.2573 0.15444,0.35782 0.1029,0.10057 0.23334,0.15079 0.39251,0.15079 0.17836,0 0.34705,-0.0586 0.50861,-0.17471 0.11967,-0.0885 0.19754,-0.19743 0.23458,-0.32668 0.0264,-0.0838 0.0383,-0.24418 0.0383,-0.47995 z"
           style="fill:#33695e;fill-rule:evenodd;stroke-width:0.264583"
           id="path883" />
      </g>
    </g>
  </g>
</svg>
